<svg width="222" height="49" viewBox="0 0 222 49" fill="none" xmlns="http://www.w3.org/2000/svg">
<rect width="222" height="49" rx="24.5" fill="#F2F0F2" fill-opacity="0.84"/>
<rect width="222" height="49" rx="24.5" fill="#171717" fill-opacity="0.2" style="mix-blend-mode:plus-lighter"/>
<path d="M70.1481 20.964C72.9641 20.964 74.5001 22.66 74.5001 25.732C74.5001 28.804 72.9641 30.5 70.1481 30.5H66.6761V29.636H67.6361V21.828H66.6761V20.964H70.1481ZM68.7881 29.636H69.9241C72.2921 29.636 73.3161 28.452 73.3161 25.732C73.3161 23.012 72.2921 21.828 69.9241 21.828H68.7881V29.636ZM84.3059 20.964V21.828H78.6739V25.22H83.2819V26.084H78.6739V29.636H84.3059V30.5H77.5219V20.964H84.3059ZM90.9116 30.66C89.3756 30.66 88.0956 30.18 87.0716 29.236L87.6476 28.532C88.5596 29.38 89.6476 29.796 90.9276 29.796C92.4956 29.796 93.3596 29.108 93.3596 27.86C93.3596 26.852 92.8476 26.5 90.8796 26.148C88.4156 25.7 87.5196 25.012 87.5196 23.476C87.5196 21.844 88.7996 20.804 90.8316 20.804C92.0476 20.804 93.1196 21.156 94.0636 21.86L93.5196 22.596C92.7196 21.988 91.8076 21.668 90.8156 21.668C89.4396 21.668 88.6076 22.308 88.6076 23.348C88.6076 24.372 89.1036 24.724 91.0876 25.076C93.5516 25.508 94.4476 26.212 94.4476 27.748C94.4476 29.62 93.1676 30.66 90.9116 30.66ZM104.973 30.5H103.757L102.861 28.004H98.7334L97.8534 30.5H96.8454L100.285 20.964H101.533L104.973 30.5ZM100.797 22.228L99.0534 27.14H102.557L100.797 22.228ZM114.795 20.964V21.828H111.579V30.5H110.427V21.828H107.211V20.964H114.795ZM124.265 20.964V21.828H121.673V29.636H124.265V30.5H117.929V29.636H120.521V21.828H117.929V20.964H124.265ZM131.303 29.06L134.071 20.964H135.063L131.783 30.5H130.599L127.319 20.964H128.535L131.303 29.06ZM145.348 30.5H144.132L143.236 28.004H139.108L138.228 30.5H137.22L140.66 20.964H141.908L145.348 30.5ZM141.172 22.228L139.428 27.14H142.932L141.172 22.228ZM152.802 26.292L155.33 30.5H153.986L151.49 26.34H149.042V30.5H147.89V20.964H152.098C153.89 20.964 155.09 21.892 155.09 23.652C155.09 25.172 154.194 26.068 152.802 26.292ZM151.938 21.828H149.042V25.476H151.938C153.154 25.476 153.906 24.948 153.906 23.652C153.906 22.356 153.154 21.828 151.938 21.828Z" fill="#171717"/>
</svg>
