<svg width="224" height="51" viewBox="0 0 224 51" fill="none" xmlns="http://www.w3.org/2000/svg">
<rect x="1" y="1" width="222" height="49" rx="24.5" fill="#8C8C8C" fill-opacity="0.06"/>
<rect x="1" y="1" width="222" height="49" rx="24.5" stroke="#171717"/>
<path d="M52.97 21.56V22.37H50.54V29.69H52.97V30.5H47.03V29.69H49.46V22.37H47.03V21.56H52.97ZM63.2141 21.56V30.5H62.1941V22.865L59.8391 29.51H59.0141L56.6591 22.865V30.5H55.7741V21.56H57.2741L59.4941 27.815L61.7141 21.56H63.2141ZM69.8733 21.56C71.6433 21.56 72.6633 22.505 72.6633 24.14C72.6633 25.775 71.6433 26.72 69.8733 26.72H66.8433V30.5H65.7633V21.56H69.8733ZM66.8433 25.91H69.7083C70.9533 25.91 71.5533 25.325 71.5533 24.14C71.5533 22.955 70.9533 22.37 69.7083 22.37H66.8433V25.91ZM78.4824 30.65C76.1424 30.65 74.7024 28.895 74.7024 26.03C74.7024 23.165 76.1424 21.41 78.4824 21.41C80.8224 21.41 82.2624 23.165 82.2624 26.03C82.2624 28.895 80.8224 30.65 78.4824 30.65ZM78.4824 29.84C80.1474 29.84 81.1524 28.445 81.1524 26.03C81.1524 23.615 80.1474 22.22 78.4824 22.22C76.8174 22.22 75.8124 23.615 75.8124 26.03C75.8124 28.445 76.8174 29.84 78.4824 29.84ZM89.3116 26.555L91.6816 30.5H90.4216L88.0816 26.6H85.7866V30.5H84.7066V21.56H88.6516C90.3316 21.56 91.4566 22.43 91.4566 24.08C91.4566 25.505 90.6166 26.345 89.3116 26.555ZM88.5016 22.37H85.7866V25.79H88.5016C89.6416 25.79 90.3466 25.295 90.3466 24.08C90.3466 22.865 89.6416 22.37 88.5016 22.37ZM101.026 21.56V22.37H98.0107V30.5H96.9307V22.37H93.9157V21.56H101.026ZM110.775 30.5H109.635L108.795 28.16H104.925L104.1 30.5H103.155L106.38 21.56H107.55L110.775 30.5ZM106.86 22.745L105.225 27.35H108.51L106.86 22.745ZM117.794 26.555L120.164 30.5H118.904L116.564 26.6H114.269V30.5H113.189V21.56H117.134C118.814 21.56 119.939 22.43 119.939 24.08C119.939 25.505 119.099 26.345 117.794 26.555ZM116.984 22.37H114.269V25.79H116.984C118.124 25.79 118.829 25.295 118.829 24.08C118.829 22.865 118.124 22.37 116.984 22.37ZM136.632 18.395L137.547 19.04L135.552 20.495H134.607L136.632 18.395ZM139.257 30.5H138.117L137.277 28.16H133.407L132.582 30.5H131.637L134.862 21.56H136.032L139.257 30.5ZM135.342 22.745L133.707 27.35H136.992L135.342 22.745ZM144.896 30.65C142.766 30.65 141.656 29.57 141.656 27.47V21.56H142.736V27.35C142.736 29.09 143.396 29.84 144.971 29.84C146.531 29.84 147.296 29.03 147.296 27.44V21.56H148.226V27.47C148.226 29.57 147.086 30.65 144.896 30.65ZM153.986 21.56C156.626 21.56 158.066 23.15 158.066 26.03C158.066 28.91 156.626 30.5 153.986 30.5H150.731V29.69H151.631V22.37H150.731V21.56H153.986ZM152.711 29.69H153.776C155.996 29.69 156.956 28.58 156.956 26.03C156.956 23.48 155.996 22.37 153.776 22.37H152.711V29.69ZM166.9 21.56V22.37H164.47V29.69H166.9V30.5H160.96V29.69H163.39V22.37H160.96V21.56H166.9ZM173.424 30.65C171.084 30.65 169.644 28.895 169.644 26.03C169.644 23.165 171.084 21.41 173.424 21.41C175.764 21.41 177.204 23.165 177.204 26.03C177.204 28.895 175.764 30.65 173.424 30.65ZM173.424 29.84C175.089 29.84 176.094 28.445 176.094 26.03C176.094 23.615 175.089 22.22 173.424 22.22C171.759 22.22 170.754 23.615 170.754 26.03C170.754 28.445 171.759 29.84 173.424 29.84Z" fill="#171717"/>
</svg>
