<svg width="126" height="42" viewBox="0 0 126 42" fill="none" xmlns="http://www.w3.org/2000/svg">
<g clip-path="url(#clip0_479_707)">
<path d="M87.2918 24.8111H85.2378C85.2378 24.8111 84.6099 38.1033 82.3622 40.0789C82.3622 40.0789 81.2693 41.3389 79.161 41.3778H79.2153C76.8434 41.2378 76.0141 40.0789 76.0141 40.0789C73.557 37.9944 73.1385 24.8111 73.1385 24.8111H71.0845L69.5963 40.3822C69.542 40.95 69.0615 41.3855 68.4879 41.3855H65.5038C64.8372 41.3855 64.3179 40.8022 64.3954 40.1411L67.519 11.3322C67.519 11.3322 67.6585 7.42777 72.0301 7.44332C76.5799 7.46666 76.6652 11.6122 76.6652 11.6122L78.0604 24.6089H80.2849C80.1919 23.6755 81.8351 11.3244 81.8351 11.3244C81.8351 11.3244 81.9746 7.43555 86.3462 7.43555C90.7177 7.43555 90.9425 11.2 90.9425 11.2L92.3144 24.6011H94.539C94.4459 23.6678 95.8721 11.3089 95.8721 11.3089C95.8721 11.3089 96.2287 7.43555 100.6 7.43555H100.275C104.646 7.43555 104.995 11.4255 104.995 11.4255L108.018 40.1333C108.095 40.7944 107.576 41.3778 106.91 41.3778H103.925C103.352 41.3778 102.871 40.9422 102.817 40.3744L101.22 24.8033H99.1663C99.1663 24.8033 98.957 34.8989 97.4456 38.8422C97.1278 39.6589 96.5387 40.3355 95.7714 40.7555C95.2055 41.0667 94.4382 41.3622 93.5701 41.3622H93.5313C91.5626 41.4167 90.3302 40.0633 90.3302 40.0633C88.0824 38.0878 87.4546 24.7955 87.4546 24.7955H85.4005" fill="#171717"/>
<path d="M87.2918 24.8111H85.2378C85.2378 24.8111 84.6099 38.1033 82.3622 40.0789C82.3622 40.0789 81.2693 41.3389 79.161 41.3778H79.2153C76.8434 41.2378 76.0141 40.0789 76.0141 40.0789C73.557 37.9944 73.1385 24.8111 73.1385 24.8111H71.0845L69.5963 40.3822C69.542 40.95 69.0615 41.3855 68.4879 41.3855H65.5038C64.8372 41.3855 64.3179 40.8022 64.3954 40.1411L67.519 11.3322C67.519 11.3322 67.6585 7.42777 72.0301 7.44332C76.5799 7.46666 76.6652 11.6122 76.6652 11.6122L78.0604 24.6089H80.2849C80.1919 23.6755 81.8351 11.3244 81.8351 11.3244C81.8351 11.3244 81.9746 7.43555 86.3462 7.43555C90.7177 7.43555 90.9425 11.2 90.9425 11.2L92.3144 24.6011H94.539C94.4459 23.6678 95.8721 11.3089 95.8721 11.3089C95.8721 11.3089 96.2287 7.43555 100.6 7.43555H100.275C104.646 7.43555 104.995 11.4255 104.995 11.4255L108.018 40.1333C108.095 40.7944 107.576 41.3778 106.91 41.3778H103.925C103.352 41.3778 102.871 40.9422 102.817 40.3744L101.22 24.8033H99.1663C99.1663 24.8033 98.957 34.8989 97.4456 38.8422C97.1278 39.6589 96.5387 40.3355 95.7714 40.7555C95.2055 41.0667 94.4382 41.3622 93.5701 41.3622H93.5313C91.5626 41.4167 90.3302 40.0633 90.3302 40.0633C88.0824 38.0878 87.4546 24.7955 87.4546 24.7955H85.4005" stroke="#171717" stroke-width="0.96" stroke-miterlimit="10"/>
<path d="M50.831 31.5622C44.1109 31.5622 38.6465 26.0789 38.6465 19.3356C38.6465 12.5922 44.1109 7.10889 50.831 7.10889C57.5511 7.10889 63.0156 12.5922 63.0156 19.3356C63.0156 26.0789 57.5511 31.5622 50.831 31.5622ZM50.831 11.4489C46.4982 11.4489 42.9715 14.9878 42.9715 19.3356C42.9715 23.6833 46.4982 27.2222 50.831 27.2222C55.1638 27.2222 58.6828 23.6833 58.6828 19.3356C58.6828 14.9878 55.1561 11.4489 50.831 11.4489Z" fill="#171717" stroke="#171717" stroke-width="0.71" stroke-miterlimit="10"/>
<path d="M50.831 41.7277C44.1109 41.7277 38.6465 36.2444 38.6465 29.5011C38.6465 22.7577 44.1109 17.2744 50.831 17.2744C57.5511 17.2744 63.0156 22.7577 63.0156 29.5011C63.0156 36.2444 57.5511 41.7277 50.831 41.7277ZM50.831 21.6222C46.4982 21.6222 42.9715 25.1611 42.9715 29.5089C42.9715 33.8566 46.4982 37.3877 50.831 37.3877C55.1638 37.3877 58.6828 33.8489 58.6828 29.5089C58.6828 25.1689 55.1561 21.6222 50.831 21.6222Z" fill="#171717" stroke="#171717" stroke-width="0.71" stroke-miterlimit="10"/>
<path d="M11.8201 9.0144C12.4324 8.47773 13.2928 7.6144 14.1144 7.6144C15.0833 7.6144 15.8351 8.40773 15.8351 9.37996C15.8351 10.2044 15.3003 10.6011 14.688 11.1066L8.01436 16.6522L16.1219 23.4188C16.742 23.94 17.3 24.3288 17.3388 25.1611C17.3776 26.0788 16.6877 26.9266 15.7731 27.0044C14.998 27.0744 14.5407 26.6077 13.9981 26.18L5.99136 19.4755C5.62706 19.1722 5.09224 19.18 4.7357 19.4988L4.60393 19.6155C4.16988 20.0122 3.91409 20.5722 3.91409 21.1633V24.6244C3.91409 25.8144 3.66606 26.9966 2.19337 26.9966C0.720688 26.9966 0.472656 25.8066 0.472656 24.6244V2.8544C0.480407 1.67218 0.728439 0.482178 2.20113 0.482178C3.67381 0.482178 3.92184 1.67218 3.92184 2.8544V10.2433C3.92184 12.39 6.42541 13.5566 8.06087 12.18L11.8123 9.0144H11.8201Z" fill="#171717" stroke="#171717" stroke-width="1.24" stroke-miterlimit="10"/>
<path d="M114.436 11.0678C113.428 11.0678 112.072 10.8501 112.072 9.34117C112.072 7.83228 113.289 7.6145 114.436 7.6145H119.172C120.962 7.6145 122.256 7.79339 123.621 9.16228C124.946 10.4923 125.124 11.5345 125.163 13.2689L125.52 25.0056C125.558 26.0167 125.055 27.0201 123.907 27.0201C123.008 27.0201 122.117 26.2656 122.148 25.2934L119.784 26.5145C118.815 27.0201 118.776 27.0201 117.668 27.0201H114.366C112.823 27.0201 111.715 26.8412 110.459 25.7989C109.025 24.6089 108.669 23.3489 108.669 21.5523V20.0434C108.669 18.3867 109.064 17.3445 110.359 16.1934C111.545 15.1512 112.87 14.8945 114.374 14.8945H121.76V14.1012C121.76 11.5112 121.187 11.0756 118.714 11.0756H114.443L114.436 11.0678ZM114.397 18.3401C113.467 18.3401 112.103 18.5889 112.103 19.8489V22.1512C112.103 23.3023 113.506 23.5589 114.327 23.5589H115.908C117.366 23.5589 118.807 23.2089 120.102 22.5323L121.264 21.9256C121.675 21.7156 121.931 21.2878 121.931 20.8212C121.931 19.4523 120.822 18.3401 119.458 18.3401H114.397Z" fill="#171717" stroke="#171717" stroke-width="1.24" stroke-miterlimit="10"/>
<path d="M23.7959 15.89V22.3922C24.1524 22.4778 24.5322 22.5322 24.912 22.5322H30.5935C32.4305 22.5322 33.1901 22.6411 34.4457 23.6756C35.0658 24.1967 35.7634 24.6167 35.7634 25.55C35.7634 26.4834 34.9651 27.2222 34.066 27.2222C33.4459 27.2222 33.0661 26.9734 32.6475 26.53C32.0972 25.9389 31.5081 25.8689 30.6013 25.8689H25.5399C24.85 25.8689 23.6719 25.7289 23.6719 26.81C23.6719 27.3622 24.0827 27.5722 24.571 27.7822L32.8956 31.5778C35.0426 32.5578 36.151 33.9111 36.151 36.3067C36.151 39.6822 33.8644 41.2845 30.6788 41.2845H25.5476C23.8114 41.2845 22.6333 41.2145 21.3853 40.2345C20.7653 39.7522 19.8584 39.1222 19.8584 38.29C19.8584 37.3489 20.6567 36.6178 21.5946 36.6178C22.1139 36.6178 22.4937 36.7967 22.8735 37.2089C23.4626 37.87 24.5012 37.94 25.5399 37.94H30.0509C31.2291 37.94 32.8258 38.0489 32.8258 36.0967C32.8258 35.2956 31.8492 34.7745 31.0896 34.4245L23.2533 30.8389C21.4163 30.0067 20.3932 28.9256 20.339 26.7711C20.3235 26.0556 20.3622 25.5889 20.37 24.92C20.37 24.8189 20.37 24.6245 20.37 24.5234V10.1656C20.37 8.8978 20.5172 7.60669 22.0907 7.60669C23.4549 7.60669 23.8114 8.7578 23.8114 9.90891V11.3089L26.501 9.08447C27.4776 8.29113 28.4775 7.60669 29.5549 7.60669H32.3142C33.6474 7.60669 34.7558 8.03447 35.6859 8.9678C36.8331 10.1189 37.2284 11.3089 37.2284 12.8956C37.2284 14.0856 37.0191 15.3067 35.5464 15.3067C34.283 15.3067 33.7869 14.3034 33.7869 13.1834C33.7869 12.6078 33.7869 12.1722 33.4226 11.6745C32.9963 11.06 32.167 11.06 31.3454 11.06H30.3455C29.6944 11.06 29.2293 11.3867 28.6248 11.8845L23.8114 15.8822L23.7959 15.89Z" fill="#171717" stroke="#171717" stroke-width="1.24" stroke-miterlimit="10"/>
</g>
<defs>
<clipPath id="clip0_479_707">
<rect width="126" height="42" fill="white"/>
</clipPath>
</defs>
</svg>
