<svg width="126" height="42" viewBox="0 0 126 42" fill="none" xmlns="http://www.w3.org/2000/svg">
<g clip-path="url(#clip0_492_876)">
<path d="M87.2908 24.8111H85.2368C85.2368 24.8111 84.609 38.1033 82.3612 40.0789C82.3612 40.0789 81.2683 41.3389 79.16 41.3778H79.2143C76.8425 41.2378 76.0131 40.0789 76.0131 40.0789C73.5561 37.9944 73.1375 24.8111 73.1375 24.8111H71.0835L69.5953 40.3822C69.541 40.95 69.0605 41.3855 68.4869 41.3855H65.5028C64.8362 41.3855 64.3169 40.8022 64.3944 40.1411L67.518 11.3322C67.518 11.3322 67.6576 7.42777 72.0291 7.44332C76.5789 7.46666 76.6642 11.6122 76.6642 11.6122L78.0594 24.6089H80.2839C80.1909 23.6755 81.8341 11.3244 81.8341 11.3244C81.8341 11.3244 81.9736 7.43555 86.3452 7.43555C90.7167 7.43555 90.9415 11.2 90.9415 11.2L92.3134 24.6011H94.538C94.445 23.6678 95.8711 11.3089 95.8711 11.3089C95.8711 11.3089 96.2277 7.43555 100.599 7.43555H100.274C104.645 7.43555 104.994 11.4255 104.994 11.4255L108.017 40.1333C108.094 40.7944 107.575 41.3778 106.909 41.3778H103.924C103.351 41.3778 102.87 40.9422 102.816 40.3744L101.219 24.8033H99.1653C99.1653 24.8033 98.956 34.8989 97.4446 38.8422C97.1268 39.6589 96.5377 40.3355 95.7704 40.7555C95.2046 41.0667 94.4372 41.3622 93.5691 41.3622H93.5303C91.5616 41.4167 90.3292 40.0633 90.3292 40.0633C88.0814 38.0878 87.4536 24.7955 87.4536 24.7955H85.3996" fill="#F2F0F2"/>
<path d="M87.2908 24.8111H85.2368C85.2368 24.8111 84.609 38.1033 82.3612 40.0789C82.3612 40.0789 81.2683 41.3389 79.16 41.3778H79.2143C76.8425 41.2378 76.0131 40.0789 76.0131 40.0789C73.5561 37.9944 73.1375 24.8111 73.1375 24.8111H71.0835L69.5953 40.3822C69.541 40.95 69.0605 41.3855 68.4869 41.3855H65.5028C64.8362 41.3855 64.3169 40.8022 64.3944 40.1411L67.518 11.3322C67.518 11.3322 67.6576 7.42777 72.0291 7.44332C76.5789 7.46666 76.6642 11.6122 76.6642 11.6122L78.0594 24.6089H80.2839C80.1909 23.6755 81.8341 11.3244 81.8341 11.3244C81.8341 11.3244 81.9736 7.43555 86.3452 7.43555C90.7167 7.43555 90.9415 11.2 90.9415 11.2L92.3134 24.6011H94.538C94.445 23.6678 95.8711 11.3089 95.8711 11.3089C95.8711 11.3089 96.2277 7.43555 100.599 7.43555H100.274C104.645 7.43555 104.994 11.4255 104.994 11.4255L108.017 40.1333C108.094 40.7944 107.575 41.3778 106.909 41.3778H103.924C103.351 41.3778 102.87 40.9422 102.816 40.3744L101.219 24.8033H99.1653C99.1653 24.8033 98.956 34.8989 97.4446 38.8422C97.1268 39.6589 96.5377 40.3355 95.7704 40.7555C95.2046 41.0667 94.4372 41.3622 93.5691 41.3622H93.5303C91.5616 41.4167 90.3292 40.0633 90.3292 40.0633C88.0814 38.0878 87.4536 24.7955 87.4536 24.7955H85.3996" stroke="#F2F0F2" stroke-width="0.96" stroke-miterlimit="10"/>
<path d="M50.831 31.5622C44.1109 31.5622 38.6465 26.0789 38.6465 19.3356C38.6465 12.5922 44.1109 7.10889 50.831 7.10889C57.5511 7.10889 63.0156 12.5922 63.0156 19.3356C63.0156 26.0789 57.5511 31.5622 50.831 31.5622ZM50.831 11.4489C46.4982 11.4489 42.9715 14.9878 42.9715 19.3356C42.9715 23.6833 46.4982 27.2222 50.831 27.2222C55.1638 27.2222 58.6828 23.6833 58.6828 19.3356C58.6828 14.9878 55.1561 11.4489 50.831 11.4489Z" fill="#F2F0F2" stroke="#F2F0F2" stroke-width="0.71" stroke-miterlimit="10"/>
<path d="M50.831 41.7277C44.1109 41.7277 38.6465 36.2444 38.6465 29.5011C38.6465 22.7577 44.1109 17.2744 50.831 17.2744C57.5511 17.2744 63.0156 22.7577 63.0156 29.5011C63.0156 36.2444 57.5511 41.7277 50.831 41.7277ZM50.831 21.6222C46.4982 21.6222 42.9715 25.1611 42.9715 29.5089C42.9715 33.8566 46.4982 37.3877 50.831 37.3877C55.1638 37.3877 58.6828 33.8489 58.6828 29.5089C58.6828 25.1689 55.1561 21.6222 50.831 21.6222Z" fill="#F2F0F2" stroke="#F2F0F2" stroke-width="0.71" stroke-miterlimit="10"/>
<path d="M11.8201 9.0144C12.4324 8.47773 13.2928 7.6144 14.1144 7.6144C15.0833 7.6144 15.8351 8.40773 15.8351 9.37996C15.8351 10.2044 15.3003 10.6011 14.688 11.1066L8.01436 16.6522L16.1219 23.4188C16.742 23.94 17.3 24.3288 17.3388 25.1611C17.3776 26.0788 16.6877 26.9266 15.7731 27.0044C14.998 27.0744 14.5407 26.6077 13.9981 26.18L5.99136 19.4755C5.62706 19.1722 5.09224 19.18 4.7357 19.4988L4.60393 19.6155C4.16988 20.0122 3.91409 20.5722 3.91409 21.1633V24.6244C3.91409 25.8144 3.66606 26.9966 2.19337 26.9966C0.720688 26.9966 0.472656 25.8066 0.472656 24.6244V2.8544C0.480407 1.67218 0.728439 0.482178 2.20113 0.482178C3.67381 0.482178 3.92184 1.67218 3.92184 2.8544V10.2433C3.92184 12.39 6.42541 13.5566 8.06087 12.18L11.8123 9.0144H11.8201Z" fill="#F2F0F2" stroke="#F2F0F2" stroke-width="1.24" stroke-miterlimit="10"/>
<path d="M114.435 11.0678C113.427 11.0678 112.071 10.8501 112.071 9.34117C112.071 7.83228 113.288 7.6145 114.435 7.6145H119.171C120.961 7.6145 122.255 7.79339 123.62 9.16228C124.945 10.4923 125.123 11.5345 125.162 13.2689L125.519 25.0056C125.557 26.0167 125.054 27.0201 123.906 27.0201C123.007 27.0201 122.116 26.2656 122.147 25.2934L119.783 26.5145C118.814 27.0201 118.775 27.0201 117.667 27.0201H114.365C112.823 27.0201 111.714 26.8412 110.458 25.7989C109.025 24.6089 108.668 23.3489 108.668 21.5523V20.0434C108.668 18.3867 109.063 17.3445 110.358 16.1934C111.544 15.1512 112.869 14.8945 114.373 14.8945H121.759V14.1012C121.759 11.5112 121.186 11.0756 118.713 11.0756H114.442L114.435 11.0678ZM114.396 18.3401C113.466 18.3401 112.102 18.5889 112.102 19.8489V22.1512C112.102 23.3023 113.505 23.5589 114.326 23.5589H115.907C117.365 23.5589 118.806 23.2089 120.101 22.5323L121.263 21.9256C121.674 21.7156 121.93 21.2878 121.93 20.8212C121.93 19.4523 120.822 18.3401 119.457 18.3401H114.396Z" fill="#F2F0F2" stroke="#F2F0F2" stroke-width="1.24" stroke-miterlimit="10"/>
<path d="M23.7949 15.89V22.3922C24.1515 22.4778 24.5313 22.5322 24.9111 22.5322H30.5925C32.4295 22.5322 33.1891 22.6411 34.4448 23.6756C35.0649 24.1967 35.7624 24.6167 35.7624 25.55C35.7624 26.4834 34.9641 27.2222 34.065 27.2222C33.4449 27.2222 33.0651 26.9734 32.6465 26.53C32.0962 25.9389 31.5072 25.8689 30.6003 25.8689H25.5389C24.8491 25.8689 23.6709 25.7289 23.6709 26.81C23.6709 27.3622 24.0817 27.5722 24.57 27.7822L32.8946 31.5778C35.0416 32.5578 36.15 33.9111 36.15 36.3067C36.15 39.6822 33.8635 41.2845 30.6778 41.2845H25.5466C23.8104 41.2845 22.6323 41.2145 21.3844 40.2345C20.7643 39.7522 19.8574 39.1222 19.8574 38.29C19.8574 37.3489 20.6558 36.6178 21.5936 36.6178C22.113 36.6178 22.4928 36.7967 22.8726 37.2089C23.4616 37.87 24.5003 37.94 25.5389 37.94H30.05C31.2281 37.94 32.8248 38.0489 32.8248 36.0967C32.8248 35.2956 31.8482 34.7745 31.0886 34.4245L23.2524 30.8389C21.4154 30.0067 20.3922 28.9256 20.338 26.7711C20.3225 26.0556 20.3612 25.5889 20.369 24.92C20.369 24.8189 20.369 24.6245 20.369 24.5234V10.1656C20.369 8.8978 20.5163 7.60669 22.0897 7.60669C23.4539 7.60669 23.8104 8.7578 23.8104 9.90891V11.3089L26.5 9.08447C27.4766 8.29113 28.4765 7.60669 29.5539 7.60669H32.3133C33.6464 7.60669 34.7548 8.03447 35.6849 8.9678C36.8321 10.1189 37.2274 11.3089 37.2274 12.8956C37.2274 14.0856 37.0181 15.3067 35.5454 15.3067C34.282 15.3067 33.7859 14.3034 33.7859 13.1834C33.7859 12.6078 33.7859 12.1722 33.4216 11.6745C32.9953 11.06 32.166 11.06 31.3444 11.06H30.3445C29.6934 11.06 29.2284 11.3867 28.6238 11.8845L23.8104 15.8822L23.7949 15.89Z" fill="#F2F0F2" stroke="#F2F0F2" stroke-width="1.24" stroke-miterlimit="10"/>
</g>
<defs>
<clipPath id="clip0_492_876">
<rect width="126" height="42" fill="white"/>
</clipPath>
</defs>
</svg>
