<svg width="65" height="51" viewBox="0 0 65 51" fill="none" xmlns="http://www.w3.org/2000/svg">
<path d="M34.0691 26.0523H31.0993C31.0993 26.0523 30.1915 45.2443 26.9451 48.0929C26.9451 48.0929 25.3641 49.9155 22.3281 49.9698H22.4063C18.9856 49.7646 17.7892 48.0929 17.7892 48.0929C14.2423 45.0813 13.6351 26.0523 13.6351 26.0523H10.6653L8.51913 48.5334C8.43497 49.3603 7.74362 49.9879 6.92001 49.9879H2.60958C1.6477 49.9879 0.902245 49.149 1.01046 48.1894L5.52528 6.60683C5.52528 6.60683 5.72367 0.969945 12.036 1.00012C18.3483 1.0303 18.7271 7.02326 18.7271 7.02326L20.735 25.7928H23.9513C23.819 24.4469 26.1877 6.61287 26.1877 6.61287C26.1877 6.61287 26.386 1.00616 32.6984 1.00616C39.0107 1.00616 39.3293 6.44388 39.3293 6.44388L41.3072 25.7928H44.5235C44.3912 24.4469 46.4473 6.6008 46.4473 6.6008C46.4473 6.6008 46.9583 1.00616 53.2766 1.00616H52.8077C59.12 1.00616 59.625 6.76375 59.625 6.76375L63.9895 48.2015C64.0978 49.1611 63.3523 50 62.3904 50H58.08C57.2564 50 56.559 49.3723 56.4809 48.5455L54.1724 26.0644H51.2026C51.2026 26.0644 50.902 40.6394 48.7137 46.3366C48.2628 47.5195 47.4091 48.4852 46.303 49.0947C45.4914 49.5413 44.3852 49.9759 43.1288 49.9759H43.0687C40.2251 50.0543 38.4516 48.1049 38.4516 48.1049C35.2053 45.2563 34.2975 26.0644 34.2975 26.0644H31.3277" fill="#F2F0F2"/>
<path d="M34.0691 26.0523H31.0993C31.0993 26.0523 30.1915 45.2443 26.9451 48.0929C26.9451 48.0929 25.3641 49.9155 22.3281 49.9698H22.4063C18.9856 49.7646 17.7892 48.0929 17.7892 48.0929C14.2423 45.0813 13.6351 26.0523 13.6351 26.0523H10.6653L8.51913 48.5334C8.43497 49.3603 7.74362 49.9879 6.92001 49.9879H2.60958C1.6477 49.9879 0.902245 49.149 1.01046 48.1894L5.52528 6.60683C5.52528 6.60683 5.72367 0.969945 12.036 1.00012C18.3483 1.0303 18.7271 7.02326 18.7271 7.02326L20.735 25.7928H23.9513C23.819 24.4469 26.1877 6.61287 26.1877 6.61287C26.1877 6.61287 26.386 1.00616 32.6984 1.00616C39.0107 1.00616 39.3293 6.44388 39.3293 6.44388L41.3072 25.7928H44.5235C44.3912 24.4469 46.4473 6.6008 46.4473 6.6008C46.4473 6.6008 46.9583 1.00616 53.2766 1.00616H52.8077C59.12 1.00616 59.625 6.76375 59.625 6.76375L63.9895 48.2015C64.0978 49.1611 63.3523 50 62.3904 50H58.08C57.2564 50 56.559 49.3723 56.4809 48.5455L54.1724 26.0644H51.2026C51.2026 26.0644 50.902 40.6394 48.7137 46.3366C48.2628 47.5195 47.4091 48.4852 46.303 49.0947C45.4914 49.5413 44.3852 49.9759 43.1288 49.9759H43.0687C40.2251 50.0543 38.4516 48.1049 38.4516 48.1049C35.2053 45.2563 34.2975 26.0644 34.2975 26.0644H31.3277" stroke="#F2F0F2" stroke-width="1.79" stroke-miterlimit="10"/>
</svg>
