<svg width="29" height="30" viewBox="0 0 29 30" fill="none" xmlns="http://www.w3.org/2000/svg">
<path fill-rule="evenodd" clip-rule="evenodd" d="M14.4325 0C11.4505 0 9.08594 2.23665 9.08594 4.87302V12.9489C9.08594 15.584 11.4505 17.8219 14.4325 17.8219C17.4146 17.8219 19.7791 15.584 19.7791 12.9489V4.87302C19.7791 2.23792 17.4146 0 14.4325 0Z" fill="#171717"/>
<path d="M15.9512 24.9565V28.1494C15.9512 28.5615 15.7912 28.9567 15.5065 29.248C15.2218 29.5394 14.8356 29.7031 14.433 29.7031C14.0304 29.7031 13.6442 29.5394 13.3595 29.248C13.0748 28.9567 12.9148 28.5615 12.9148 28.1494V24.9565C9.57455 24.5743 6.48911 22.9455 4.24848 20.3816C2.00785 17.8176 0.769259 14.4984 0.769531 11.0586C0.769531 10.6466 0.92948 10.2514 1.21419 9.96001C1.4989 9.66864 1.88505 9.50494 2.28769 9.50494C2.69034 9.50494 3.07649 9.66864 3.3612 9.96001C3.64591 10.2514 3.80586 10.6466 3.80586 11.0586C3.80586 12.4869 4.08073 13.9012 4.6148 15.2207C5.14886 16.5402 5.93165 17.7392 6.91847 18.7491C7.90529 19.759 9.07682 20.5601 10.3662 21.1067C11.6555 21.6533 13.0374 21.9346 14.433 21.9346C15.8286 21.9346 17.2105 21.6533 18.4998 21.1067C19.7892 20.5601 20.9607 19.759 21.9475 18.7491C22.9343 17.7392 23.7171 16.5402 24.2512 15.2207C24.7853 13.9012 25.0601 12.4869 25.0601 11.0586C25.0601 10.6466 25.2201 10.2514 25.5048 9.96001C25.7895 9.66864 26.1757 9.50494 26.5783 9.50494C26.9809 9.50494 27.3671 9.66864 27.6518 9.96001C27.9365 10.2514 28.0965 10.6466 28.0965 11.0586C28.0967 14.4984 26.8581 17.8176 24.6175 20.3816C22.3769 22.9455 19.2914 24.5743 15.9512 24.9565Z" fill="#171717"/>
</svg>
