<svg width="224" height="51" viewBox="0 0 224 51" fill="none" xmlns="http://www.w3.org/2000/svg">
<rect x="1" y="1" width="222" height="49" rx="24.5" fill="#8C8C8C" fill-opacity="0.06"/>
<rect x="1" y="1" width="222" height="49" rx="24.5" stroke="black"/>
<path d="M55.268 21.964V31.5H54.18V23.356L51.668 30.444H50.788L48.276 23.356V31.5H47.332V21.964H48.932L51.3 28.636L53.668 21.964H55.268ZM61.3938 31.66C58.8978 31.66 57.3618 29.788 57.3618 26.732C57.3618 23.676 58.8978 21.804 61.3938 21.804C63.8898 21.804 65.4258 23.676 65.4258 26.732C65.4258 29.788 63.8898 31.66 61.3938 31.66ZM61.3938 30.796C63.1698 30.796 64.2418 29.308 64.2418 26.732C64.2418 24.156 63.1698 22.668 61.3938 22.668C59.6178 22.668 58.5458 24.156 58.5458 26.732C58.5458 29.308 59.6178 30.796 61.3938 30.796ZM71.0075 21.964C73.8235 21.964 75.3595 23.66 75.3595 26.732C75.3595 29.804 73.8235 31.5 71.0075 31.5H67.5355V30.636H68.4955V22.828H67.5355V21.964H71.0075ZM69.6475 30.636H70.7835C73.1515 30.636 74.1755 29.452 74.1755 26.732C74.1755 24.012 73.1515 22.828 70.7835 22.828H69.6475V30.636ZM81.5813 31.66C79.0853 31.66 77.5493 29.788 77.5493 26.732C77.5493 23.676 79.0853 21.804 81.5813 21.804C84.0773 21.804 85.6133 23.676 85.6133 26.732C85.6133 29.788 84.0773 31.66 81.5813 31.66ZM81.5813 30.796C83.3573 30.796 84.4293 29.308 84.4293 26.732C84.4293 24.156 83.3573 22.668 81.5813 22.668C79.8053 22.668 78.7333 24.156 78.7333 26.732C78.7333 29.308 79.8053 30.796 81.5813 30.796ZM104.937 21.964V22.828H102.345V30.636H104.937V31.5H98.6008V30.636H101.193V22.828H98.6008V21.964H104.937ZM115.831 21.964V31.5H114.743V23.356L112.231 30.444H111.351L108.839 23.356V31.5H107.895V21.964H109.495L111.863 28.636L114.231 21.964H115.831ZM125.54 21.964V22.828H119.908V26.22H124.516V27.084H119.908V30.636H125.54V31.5H118.756V21.964H125.54ZM133.474 27.292L136.002 31.5H134.658L132.162 27.34H129.714V31.5H128.562V21.964H132.77C134.562 21.964 135.762 22.892 135.762 24.652C135.762 26.172 134.866 27.068 133.474 27.292ZM132.61 22.828H129.714V26.476H132.61C133.826 26.476 134.578 25.948 134.578 24.652C134.578 23.356 133.826 22.828 132.61 22.828ZM142.24 31.66C140.704 31.66 139.424 31.18 138.4 30.236L138.976 29.532C139.888 30.38 140.976 30.796 142.256 30.796C143.824 30.796 144.688 30.108 144.688 28.86C144.688 27.852 144.176 27.5 142.208 27.148C139.744 26.7 138.848 26.012 138.848 24.476C138.848 22.844 140.128 21.804 142.16 21.804C143.376 21.804 144.448 22.156 145.392 22.86L144.848 23.596C144.048 22.988 143.136 22.668 142.144 22.668C140.768 22.668 139.936 23.308 139.936 24.348C139.936 25.372 140.432 25.724 142.416 26.076C144.88 26.508 145.776 27.212 145.776 28.748C145.776 30.62 144.496 31.66 142.24 31.66ZM155.406 21.964V22.828H152.814V30.636H155.406V31.5H149.07V30.636H151.661V22.828H149.07V21.964H155.406ZM162.443 30.06L165.211 21.964H166.203L162.923 31.5H161.739L158.459 21.964H159.675L162.443 30.06ZM172.425 31.66C169.929 31.66 168.393 29.788 168.393 26.732C168.393 23.676 169.929 21.804 172.425 21.804C174.921 21.804 176.457 23.676 176.457 26.732C176.457 29.788 174.921 31.66 172.425 31.66ZM172.425 30.796C174.201 30.796 175.273 29.308 175.273 26.732C175.273 24.156 174.201 22.668 172.425 22.668C170.649 22.668 169.577 24.156 169.577 26.732C169.577 29.308 170.649 30.796 172.425 30.796Z" fill="#171717"/>
</svg>
