<svg width="37" height="52" viewBox="0 0 37 52" fill="none" xmlns="http://www.w3.org/2000/svg">
<path d="M18.5575 36.1149C8.87203 36.1149 1 28.2369 1 18.5575C1 8.87804 8.87203 1 18.5575 1C28.2429 1 36.1149 8.87804 36.1149 18.5575C36.1149 28.2369 28.2369 36.1149 18.5575 36.1149ZM18.5575 7.23278C12.3127 7.23278 7.23278 12.3127 7.23278 18.5575C7.23278 24.8022 12.3127 29.8821 18.5575 29.8821C24.8022 29.8821 29.8821 24.8022 29.8821 18.5575C29.8821 12.3127 24.8022 7.23278 18.5575 7.23278Z" fill="#171717" stroke="#171717" stroke-width="1.31" stroke-miterlimit="10"/>
<path d="M18.5575 50.7241C8.87804 50.7241 1 42.8461 1 33.1666C1 23.4872 8.87804 15.6092 18.5575 15.6092C28.2369 15.6092 36.1149 23.4872 36.1149 33.1666C36.1149 42.8461 28.2369 50.7241 18.5575 50.7241ZM18.5575 21.842C12.3127 21.842 7.23278 26.9219 7.23278 33.1666C7.23278 39.4114 12.3127 44.4913 18.5575 44.4913C24.8022 44.4913 29.8821 39.4114 29.8821 33.1666C29.8821 26.9219 24.8022 21.842 18.5575 21.842Z" fill="#171717" stroke="#171717" stroke-width="1.31" stroke-miterlimit="10"/>
</svg>
