<svg width="79" height="52" viewBox="0 0 79 52" fill="none" xmlns="http://www.w3.org/2000/svg">
<rect width="79" height="52" rx="26" fill="#171717"/>
<path d="M42.421 33.4701H44.4214C45.1969 33.4701 45.6022 33.0648 45.6022 32.2893V20.2871C45.6022 19.4853 45.1969 19.1152 44.4214 19.1152H42.4214C41.6455 19.1152 41.2491 19.5206 41.2491 20.2871V32.2893C41.2491 33.0648 41.6455 33.4701 42.421 33.4701ZM48.8272 33.4701H50.8277C51.6031 33.4701 52 33.0648 52 32.2893V20.2871C52 19.4853 51.6031 19.1152 50.8277 19.1152H48.8277C48.0522 19.1152 47.6469 19.5206 47.6469 20.2871V32.2893C47.6469 33.0648 48.0518 33.4701 48.8272 33.4701ZM28.2696 33.2059C28.6308 33.2059 28.9304 33.0911 29.283 32.88L38.2625 27.6014C38.8879 27.2309 39.1612 26.7907 39.1612 26.2884C39.1612 25.7773 38.8879 25.3456 38.2625 24.9755L29.2821 19.6876C28.921 19.4759 28.6304 19.3617 28.2687 19.3617C27.5813 19.3617 27 19.8907 27 20.8777V31.6992C27 32.6858 27.5817 33.2059 28.2687 33.2059" fill="#F2F0F2"/>
</svg>
