<svg width="76" height="51" viewBox="0 0 76 51" fill="none" xmlns="http://www.w3.org/2000/svg">
<rect x="1" y="1" width="74" height="49" rx="24.5" fill="#8C8C8C" fill-opacity="0.06"/>
<rect x="1" y="1" width="74" height="49" rx="24.5" stroke="#171717"/>
<g clip-path="url(#clip0_529_831)">
<path d="M40.921 32.9701H42.9214C43.6969 32.9701 44.1022 32.5647 44.1022 31.7893V19.787C44.1022 18.9853 43.6969 18.6152 42.9214 18.6152H40.9214C40.1455 18.6152 39.7491 19.0205 39.7491 19.787V31.7893C39.7491 32.5647 40.1455 32.9701 40.921 32.9701ZM47.3272 32.9701H49.3277C50.1031 32.9701 50.5 32.5647 50.5 31.7893V19.787C50.5 18.9853 50.1031 18.6152 49.3277 18.6152H47.3277C46.5522 18.6152 46.1469 19.0205 46.1469 19.787V31.7893C46.1469 32.5647 46.5518 32.9701 47.3272 32.9701ZM26.7696 32.7058C27.1308 32.7058 27.4304 32.5911 27.783 32.3799L36.7625 27.1013C37.3879 26.7308 37.6612 26.2906 37.6612 25.7884C37.6612 25.2772 37.3879 24.8455 36.7625 24.4754L27.7821 19.1875C27.421 18.9759 27.1304 18.8616 26.7687 18.8616C26.0813 18.8616 25.5 19.3906 25.5 20.3777V31.1991C25.5 32.1857 26.0817 32.7058 26.7687 32.7058" fill="#171717"/>
</g>
<defs>
<clipPath id="clip0_529_831">
<rect width="25" height="25" fill="white" transform="translate(25.5 13)"/>
</clipPath>
</defs>
</svg>
