<svg width="35" height="35" viewBox="0 0 35 35" fill="none" xmlns="http://www.w3.org/2000/svg">
<g clip-path="url(#clip0_680_251)">
<path d="M17 35C7.6276 35 0 27.3724 0 18C0 8.6276 7.6276 1 17 1C26.3724 1 34 8.6276 34 18C34 27.3724 26.3724 35 17 35ZM17 4.08877C9.32524 4.08877 3.08877 10.3252 3.08877 18C3.08877 25.6748 9.32524 31.9112 17 31.9112C24.6748 31.9112 30.9112 25.6748 30.9112 18C30.9112 10.3252 24.663 4.08877 17 4.08877Z" fill="#171717"/>
<path d="M17.0005 25.7219C16.5996 25.7219 16.2106 25.5687 15.9041 25.2739C15.3028 24.6727 15.3028 23.6942 15.9041 23.0929L20.997 18L15.9041 12.9071C15.3028 12.3058 15.3028 11.3273 15.9041 10.7261C16.5053 10.1248 17.4838 10.1248 18.0851 10.7261L24.2626 16.9036C24.8638 17.5049 24.8638 18.4834 24.2626 19.0846L18.0851 25.2621C17.7785 25.5687 17.3895 25.7101 16.9887 25.7101L17.0005 25.7219Z" fill="#171717"/>
<path d="M23.1778 19.5444H10.811C9.96216 19.5444 9.2666 18.8488 9.2666 18C9.2666 17.1512 9.96216 16.4556 10.811 16.4556H23.1778C24.0267 16.4556 24.7222 17.1512 24.7222 18C24.7222 18.8488 24.0267 19.5444 23.1778 19.5444Z" fill="#171717"/>
</g>
<defs>
<clipPath id="clip0_680_251">
<rect width="34" height="34" fill="white" transform="translate(0 1)"/>
</clipPath>
</defs>
</svg>
