<svg width="28" height="28" viewBox="0 0 28 28" fill="none" xmlns="http://www.w3.org/2000/svg">
<g clip-path="url(#clip0_479_704)">
<path d="M2.33615 28.0004C1.73258 28.0004 1.14214 27.7773 0.682913 27.3181C-0.222429 26.4128 -0.222429 24.9301 0.682913 24.0116L24.025 0.682669C24.9303 -0.222673 26.413 -0.222673 27.3315 0.682669C28.2499 1.58801 28.2368 3.07067 27.3315 3.98914L3.98938 27.3181C3.53015 27.7773 2.93971 28.0004 2.33615 28.0004Z" fill="#171717"/>
<path d="M25.6776 28C24.3918 28 23.3421 26.9503 23.3421 25.6645V4.67104H2.33552C1.04967 4.67104 0 3.62137 0 2.33552C0 1.04967 1.04967 0 2.33552 0H25.6776C26.9634 0 28.0131 1.04967 28.0131 2.33552V25.6776C28.0131 26.9634 26.9634 28.0131 25.6776 28.0131V28Z" fill="#171717"/>
</g>
<defs>
<clipPath id="clip0_479_704">
<rect width="28" height="28" fill="white"/>
</clipPath>
</defs>
</svg>
